<svg xmlns="http://www.w3.org/2000/svg" xmlns:xlink="http://www.w3.org/1999/xlink" width="37" height="53" viewBox="0 0 37 53"><defs><path id="q2j5a" d="M101.66 1418.68h-.26c-.35 0-.71.01-1.06.03-10.78-.1-17.33-8.31-17.33-8.31l.02 27.8c0 2.85.13 5.56 2.18 7.9l16.2 16.64 16.2-16.63c1.85-2.04 2.21-5.08 2.16-7.92l.03-27.79c-6.8 5.81-12.92 8-18.14 8.28"/><path id="q2j5b" d="M111.64 1431.74a5.42 5.42 0 0 0-1.25-2.5c-.1-.13-.13-.22-.08-.39a5.53 5.53 0 0 0-.17-3.66c-.03-.08-.15-.19-.22-.18-.4.03-.8.06-1.2.16a8.9 8.9 0 0 0-2.6 1.3c-.14.08-.26.1-.42.06a14 14 0 0 0-7.07-.01.55.55 0 0 1-.49-.08 8.84 8.84 0 0 0-2.8-1.33c-.32-.08-.65-.08-.97-.1-.07 0-.19.1-.21.16a5.62 5.62 0 0 0-.17 3.72c.02.1 0 .24-.07.3a6.05 6.05 0 0 0-1.41 4.2c.03 1.15.17 2.27.6 3.34a5.74 5.74 0 0 0 3.89 3.44c.75.23 1.53.36 2.3.53 0 0 0 .04-.03.06a3.08 3.08 0 0 0-.8 1.66c-.03.2-.11.31-.3.38-.94.32-1.87.43-2.79-.03-.55-.27-.96-.7-1.28-1.22-.3-.5-.67-.93-1.15-1.26-.5-.35-1.04-.5-1.64-.37-.34.07-.4.26-.18.51.11.13.24.25.39.33.51.28.86.72 1.16 1.2.23.4.45.8.63 1.21a2.9 2.9 0 0 0 2.27 1.73c.83.16 1.65.1 2.48-.03l.17-.02h.1l.01.22.03 3.15c0 .14.1.26.25.26h7.02c.14 0 .26-.12.26-.26 0 0 .02-3.34 0-4.62 0-.47-.05-.94-.14-1.4a2.86 2.86 0 0 0-.82-1.52c.61-.12 1.2-.21 1.79-.35.81-.19 1.58-.5 2.29-.95 1-.64 1.72-1.51 2.14-2.61a9 9 0 0 0 .48-5.03"/></defs><g><g transform="translate(-83 -1410)"><use fill="#020303" xlink:href="#q2j5a"/></g><g clip-path="url(#clip-5C36A846-1585-413D-989A-15EAA2A80080)" transform="translate(-83 -1410)"><use fill="#fff" xlink:href="#q2j5b"/></g></g></svg>