<svg xmlns="http://www.w3.org/2000/svg" xmlns:xlink="http://www.w3.org/1999/xlink" width="38" height="53" viewBox="0 0 38 53"><defs><path id="6wyva" d="M230.45 1418.68h-.26c-.35 0-.71.01-1.06.03-10.78-.1-17.33-8.31-17.33-8.31l.02 27.8c0 2.85.13 5.56 2.18 7.9l16.2 16.64 16.2-16.63c1.85-2.04 2.21-5.08 2.16-7.92l.03-27.79c-6.8 5.81-12.92 8-18.14 8.28"/><path id="6wyvb" d="M219.5 1445.32h4.76v-14.52h-4.77zm2.38-16.5c1.66 0 2.7-1.11 2.7-2.5-.04-1.43-1.04-2.51-2.67-2.51s-2.7 1.08-2.7 2.5c0 1.4 1.04 2.51 2.64 2.51zm19.57 8.17c0-4.45-2.35-6.53-5.49-6.53a4.73 4.73 0 0 0-4.3 2.4v-2.06h-4.76c.06 1.36 0 14.52 0 14.52h4.76v-8.1c0-.44.04-.88.16-1.19.35-.86 1.13-1.76 2.45-1.76 1.72 0 2.41 1.33 2.41 3.28v7.77h4.77z"/></defs><g><g transform="translate(-211 -1410)"><use fill="#020303" xlink:href="#6wyva"/></g><g transform="translate(-211 -1410)"><use fill="#fefefe" xlink:href="#6wyvb"/></g></g></svg>