<svg xmlns="http://www.w3.org/2000/svg" xmlns:xlink="http://www.w3.org/1999/xlink" width="37" height="53" viewBox="0 0 37 53"><defs><path id="4hx6a" d="M187.6 1418.56h-.27c-.35 0-.71.01-1.06.03-10.78-.1-17.33-8.31-17.33-8.31l.02 27.8c0 2.85.13 5.56 2.18 7.9l16.2 16.64 16.2-16.63c1.85-2.04 2.21-5.08 2.16-7.92l.03-27.79c-6.8 5.81-12.92 8-18.14 8.28"/><path id="4hx6b" d="M196.42 1427.63l-21.03 8.2a.61.61 0 0 0 0 1.15l5.13 1.94 1.98 6.45a.6.6 0 0 0 .96.29l2.86-2.36a.84.84 0 0 1 1.03-.02l5.16 3.78a.6.6 0 0 0 .94-.37l3.78-18.36a.6.6 0 0 0-.81-.7m-4 4.3l-8.28 7.77c-.29.27-.47.64-.53 1.03l-.28 2.12c-.04.28-.43.3-.5.03l-1.09-3.85c-.12-.44.06-.9.44-1.14l10.03-6.24c.18-.12.36.13.2.28"/></defs><g><g transform="translate(-169 -1410)"><use fill="#020303" xlink:href="#4hx6a"/></g><g transform="translate(-169 -1410)"><use fill="#fefefe" xlink:href="#4hx6b"/></g></g></svg>