<svg xmlns="http://www.w3.org/2000/svg" xmlns:xlink="http://www.w3.org/1999/xlink" width="38" height="53" viewBox="0 0 38 53"><defs><path id="h9lya" d="M144.51 1418.56h-.26c-.35 0-.71.01-1.06.03-10.78-.1-17.33-8.31-17.33-8.31l.02 27.8c0 2.85.13 5.56 2.18 7.9l16.2 16.64 16.2-16.63c1.85-2.04 2.21-5.08 2.17-7.92l.02-27.79c-6.8 5.81-12.92 8-18.14 8.28"/><path id="h9lyb" d="M153.1 1431.82v.6c0 6.1-4.58 13.13-12.98 13.13a12.8 12.8 0 0 1-6.99-2.07 9.21 9.21 0 0 0 6.76-1.91 4.57 4.57 0 0 1-4.27-3.2 4.48 4.48 0 0 0 2.06-.09 4.6 4.6 0 0 1-3.66-4.52v-.06c.62.34 1.32.55 2.07.58a4.63 4.63 0 0 1-1.41-6.17 12.9 12.9 0 0 0 9.4 4.83 4.59 4.59 0 0 1 4.44-5.67c1.32 0 2.5.56 3.34 1.46 1.04-.2 2.01-.6 2.9-1.12a4.62 4.62 0 0 1-2.01 2.55c.92-.11 1.8-.36 2.62-.73a9.32 9.32 0 0 1-2.28 2.4"/></defs><g><g transform="translate(-125 -1410)"><use fill="#020303" xlink:href="#h9lya"/></g><g transform="translate(-125 -1410)"><use fill="#fefefe" xlink:href="#h9lyb"/></g></g></svg>